<mxfile host="Electron" agent="Mozilla/5.0 (X11; Linux x86_64) AppleWebKit/537.36 (KHTML, like Gecko) draw.io/26.1.1 Chrome/132.0.6834.210 Electron/34.3.2 Safari/537.36" version="26.1.1">
  <diagram id="C5RBs43oDa-KdzZeNtuy" name="Page-1">
    <mxGraphModel dx="1050" dy="655" grid="1" gridSize="10" guides="1" tooltips="1" connect="1" arrows="1" fold="1" page="1" pageScale="1" pageWidth="827" pageHeight="1169" math="0" shadow="0">
      <root>
        <mxCell id="WIyWlLk6GJQsqaUBKTNV-0" />
        <mxCell id="WIyWlLk6GJQsqaUBKTNV-1" parent="WIyWlLk6GJQsqaUBKTNV-0" />
        <mxCell id="WISO1EMJ7THBiyXa34tG-13" style="edgeStyle=orthogonalEdgeStyle;rounded=0;orthogonalLoop=1;jettySize=auto;html=1;exitX=0.5;exitY=1;exitDx=0;exitDy=0;entryX=0.5;entryY=0;entryDx=0;entryDy=0;" edge="1" parent="WIyWlLk6GJQsqaUBKTNV-1" source="WIyWlLk6GJQsqaUBKTNV-7" target="WISO1EMJ7THBiyXa34tG-12">
          <mxGeometry relative="1" as="geometry" />
        </mxCell>
        <mxCell id="WISO1EMJ7THBiyXa34tG-23" style="edgeStyle=orthogonalEdgeStyle;rounded=0;orthogonalLoop=1;jettySize=auto;html=1;exitX=0.5;exitY=1;exitDx=0;exitDy=0;entryX=0.5;entryY=0;entryDx=0;entryDy=0;" edge="1" parent="WIyWlLk6GJQsqaUBKTNV-1" source="WIyWlLk6GJQsqaUBKTNV-7" target="WISO1EMJ7THBiyXa34tG-15">
          <mxGeometry relative="1" as="geometry" />
        </mxCell>
        <mxCell id="WIyWlLk6GJQsqaUBKTNV-7" value="Page is rendered" style="rounded=1;whiteSpace=wrap;html=1;fontSize=12;glass=0;strokeWidth=1;shadow=0;" parent="WIyWlLk6GJQsqaUBKTNV-1" vertex="1">
          <mxGeometry x="160" y="230" width="120" height="40" as="geometry" />
        </mxCell>
        <mxCell id="WISO1EMJ7THBiyXa34tG-8" style="edgeStyle=orthogonalEdgeStyle;rounded=0;orthogonalLoop=1;jettySize=auto;html=1;exitX=0.5;exitY=1;exitDx=0;exitDy=0;entryX=0.5;entryY=0;entryDx=0;entryDy=0;" edge="1" parent="WIyWlLk6GJQsqaUBKTNV-1" source="WISO1EMJ7THBiyXa34tG-2" target="WISO1EMJ7THBiyXa34tG-6">
          <mxGeometry relative="1" as="geometry" />
        </mxCell>
        <mxCell id="WISO1EMJ7THBiyXa34tG-26" style="edgeStyle=orthogonalEdgeStyle;rounded=0;orthogonalLoop=1;jettySize=auto;html=1;exitX=1;exitY=0.5;exitDx=0;exitDy=0;entryX=1;entryY=0.5;entryDx=0;entryDy=0;" edge="1" parent="WIyWlLk6GJQsqaUBKTNV-1" source="WISO1EMJ7THBiyXa34tG-2" target="WIyWlLk6GJQsqaUBKTNV-7">
          <mxGeometry relative="1" as="geometry">
            <Array as="points">
              <mxPoint x="460" y="430" />
              <mxPoint x="460" y="250" />
            </Array>
          </mxGeometry>
        </mxCell>
        <mxCell id="WISO1EMJ7THBiyXa34tG-27" value="Timeout" style="edgeLabel;html=1;align=center;verticalAlign=bottom;resizable=0;points=[];labelPosition=center;verticalLabelPosition=top;" vertex="1" connectable="0" parent="WISO1EMJ7THBiyXa34tG-26">
          <mxGeometry x="0.3766" y="-1" relative="1" as="geometry">
            <mxPoint x="25" y="181" as="offset" />
          </mxGeometry>
        </mxCell>
        <mxCell id="WISO1EMJ7THBiyXa34tG-2" value="Wait for IP" style="shape=delay;whiteSpace=wrap;html=1;" vertex="1" parent="WIyWlLk6GJQsqaUBKTNV-1">
          <mxGeometry x="330" y="410" width="80" height="40" as="geometry" />
        </mxCell>
        <mxCell id="WISO1EMJ7THBiyXa34tG-10" style="edgeStyle=orthogonalEdgeStyle;rounded=0;orthogonalLoop=1;jettySize=auto;html=1;exitX=0.5;exitY=1;exitDx=0;exitDy=0;entryX=0.5;entryY=0;entryDx=0;entryDy=0;" edge="1" parent="WIyWlLk6GJQsqaUBKTNV-1" source="WISO1EMJ7THBiyXa34tG-3" target="WISO1EMJ7THBiyXa34tG-9">
          <mxGeometry relative="1" as="geometry" />
        </mxCell>
        <mxCell id="WISO1EMJ7THBiyXa34tG-3" value="Page is requested" style="ellipse;whiteSpace=wrap;html=1;" vertex="1" parent="WIyWlLk6GJQsqaUBKTNV-1">
          <mxGeometry x="160" y="60" width="120" height="60" as="geometry" />
        </mxCell>
        <mxCell id="WISO1EMJ7THBiyXa34tG-6" value="Replace Placeholder&lt;div&gt;with IP-Address&lt;/div&gt;" style="rounded=0;whiteSpace=wrap;html=1;" vertex="1" parent="WIyWlLk6GJQsqaUBKTNV-1">
          <mxGeometry x="310" y="480" width="120" height="60" as="geometry" />
        </mxCell>
        <mxCell id="WISO1EMJ7THBiyXa34tG-11" style="edgeStyle=orthogonalEdgeStyle;rounded=0;orthogonalLoop=1;jettySize=auto;html=1;exitX=0.5;exitY=1;exitDx=0;exitDy=0;entryX=0.5;entryY=0;entryDx=0;entryDy=0;" edge="1" parent="WIyWlLk6GJQsqaUBKTNV-1" source="WISO1EMJ7THBiyXa34tG-9" target="WIyWlLk6GJQsqaUBKTNV-7">
          <mxGeometry relative="1" as="geometry" />
        </mxCell>
        <mxCell id="WISO1EMJ7THBiyXa34tG-9" value="Wait for&lt;div&gt;Response&lt;/div&gt;" style="shape=delay;whiteSpace=wrap;html=1;" vertex="1" parent="WIyWlLk6GJQsqaUBKTNV-1">
          <mxGeometry x="180" y="150" width="80" height="40" as="geometry" />
        </mxCell>
        <mxCell id="WISO1EMJ7THBiyXa34tG-14" style="edgeStyle=orthogonalEdgeStyle;rounded=0;orthogonalLoop=1;jettySize=auto;html=1;exitX=0.5;exitY=1;exitDx=0;exitDy=0;entryX=0.5;entryY=0;entryDx=0;entryDy=0;" edge="1" parent="WIyWlLk6GJQsqaUBKTNV-1" source="WISO1EMJ7THBiyXa34tG-12" target="WISO1EMJ7THBiyXa34tG-2">
          <mxGeometry relative="1" as="geometry" />
        </mxCell>
        <mxCell id="WISO1EMJ7THBiyXa34tG-12" value="request IP&lt;div&gt;from Flask-Server&lt;/div&gt;" style="rounded=0;whiteSpace=wrap;html=1;" vertex="1" parent="WIyWlLk6GJQsqaUBKTNV-1">
          <mxGeometry x="310" y="310" width="120" height="60" as="geometry" />
        </mxCell>
        <mxCell id="WISO1EMJ7THBiyXa34tG-17" value="" style="edgeStyle=orthogonalEdgeStyle;rounded=0;orthogonalLoop=1;jettySize=auto;html=1;" edge="1" parent="WIyWlLk6GJQsqaUBKTNV-1" source="WISO1EMJ7THBiyXa34tG-15" target="WISO1EMJ7THBiyXa34tG-16">
          <mxGeometry relative="1" as="geometry" />
        </mxCell>
        <mxCell id="WISO1EMJ7THBiyXa34tG-15" value="Wait for&lt;div&gt;Button press&lt;/div&gt;" style="shape=delay;whiteSpace=wrap;html=1;" vertex="1" parent="WIyWlLk6GJQsqaUBKTNV-1">
          <mxGeometry x="100" y="310" width="80" height="40" as="geometry" />
        </mxCell>
        <mxCell id="WISO1EMJ7THBiyXa34tG-20" style="edgeStyle=orthogonalEdgeStyle;rounded=0;orthogonalLoop=1;jettySize=auto;html=1;exitX=0.5;exitY=1;exitDx=0;exitDy=0;entryX=0.5;entryY=0;entryDx=0;entryDy=0;" edge="1" parent="WIyWlLk6GJQsqaUBKTNV-1" source="WISO1EMJ7THBiyXa34tG-16" target="WISO1EMJ7THBiyXa34tG-18">
          <mxGeometry relative="1" as="geometry" />
        </mxCell>
        <mxCell id="WISO1EMJ7THBiyXa34tG-16" value="request Temperature" style="whiteSpace=wrap;html=1;" vertex="1" parent="WIyWlLk6GJQsqaUBKTNV-1">
          <mxGeometry x="80" y="390" width="120" height="60" as="geometry" />
        </mxCell>
        <mxCell id="WISO1EMJ7THBiyXa34tG-22" style="edgeStyle=orthogonalEdgeStyle;rounded=0;orthogonalLoop=1;jettySize=auto;html=1;exitX=0.5;exitY=1;exitDx=0;exitDy=0;entryX=0.5;entryY=0;entryDx=0;entryDy=0;" edge="1" parent="WIyWlLk6GJQsqaUBKTNV-1" source="WISO1EMJ7THBiyXa34tG-18" target="WISO1EMJ7THBiyXa34tG-19">
          <mxGeometry relative="1" as="geometry" />
        </mxCell>
        <mxCell id="WISO1EMJ7THBiyXa34tG-25" style="edgeStyle=orthogonalEdgeStyle;rounded=0;orthogonalLoop=1;jettySize=auto;html=1;exitX=0;exitY=0.5;exitDx=0;exitDy=0;entryX=0;entryY=0.5;entryDx=0;entryDy=0;" edge="1" parent="WIyWlLk6GJQsqaUBKTNV-1" source="WISO1EMJ7THBiyXa34tG-18" target="WIyWlLk6GJQsqaUBKTNV-7">
          <mxGeometry relative="1" as="geometry">
            <Array as="points">
              <mxPoint x="50" y="510" />
              <mxPoint x="50" y="250" />
            </Array>
          </mxGeometry>
        </mxCell>
        <mxCell id="WISO1EMJ7THBiyXa34tG-28" value="Timeout" style="edgeLabel;html=1;align=center;verticalAlign=bottom;resizable=0;points=[];labelPosition=center;verticalLabelPosition=top;" vertex="1" connectable="0" parent="WISO1EMJ7THBiyXa34tG-25">
          <mxGeometry x="0.6419" y="-2" relative="1" as="geometry">
            <mxPoint x="-11" y="258" as="offset" />
          </mxGeometry>
        </mxCell>
        <mxCell id="WISO1EMJ7THBiyXa34tG-18" value="wait for&lt;div&gt;Temperature&lt;/div&gt;" style="shape=delay;whiteSpace=wrap;html=1;" vertex="1" parent="WIyWlLk6GJQsqaUBKTNV-1">
          <mxGeometry x="100" y="490" width="80" height="40" as="geometry" />
        </mxCell>
        <mxCell id="WISO1EMJ7THBiyXa34tG-19" value="Replace Placeholder&lt;div&gt;with Temperature&lt;/div&gt;" style="rounded=0;whiteSpace=wrap;html=1;" vertex="1" parent="WIyWlLk6GJQsqaUBKTNV-1">
          <mxGeometry x="80" y="570" width="120" height="60" as="geometry" />
        </mxCell>
      </root>
    </mxGraphModel>
  </diagram>
</mxfile>
